<svg width="60" height="60" viewBox="0 0 60 60" fill="none" xmlns="http://www.w3.org/2000/svg">
<circle cx="30" cy="30" r="30" fill="#24AA4A"/>
<path d="M39.2122 37.0591L45.7147 40.3445C44.1299 42.4047 42.1139 44.0529 39.6667 45.289C37.2429 46.5251 34.6092 47.1431 31.7659 47.1431C28.5496 47.1431 25.613 46.3733 22.9561 44.8336C20.3225 43.2939 18.2132 41.2337 16.6284 38.653C15.0669 36.0507 14.2861 33.1773 14.2861 30.0328C14.2861 27.6473 14.7406 25.4245 15.6496 23.3643C16.5585 21.2825 17.8054 19.4608 19.3902 17.8994C20.9984 16.3164 22.8629 15.0802 24.9837 14.1911C27.1046 13.302 29.3653 12.8574 31.7659 12.8574C34.6092 12.8574 37.2429 13.4755 39.6667 14.7116C42.1139 15.9477 44.1299 17.6067 45.7147 19.6885L39.2122 22.974C38.2334 21.8897 37.0914 21.0656 35.7862 20.5018C34.4811 19.9162 33.1409 19.6235 31.7659 19.6235C29.8548 19.6235 28.1184 20.1114 26.5569 21.0873C25.0187 22.0415 23.7951 23.3101 22.8862 24.8932C22.0005 26.4546 21.5577 28.1678 21.5577 30.0328C21.5577 31.8761 22.0122 33.5893 22.9211 35.1724C23.8301 36.7338 25.0537 37.9916 26.5919 38.9458C28.1534 39.9 29.8781 40.3771 31.7659 40.3771C33.2109 40.3771 34.5859 40.0735 35.8911 39.4663C37.1962 38.859 38.3033 38.0567 39.2122 37.0591Z" fill="white"/>
</svg>
